<svg height="888pt" preserveAspectRatio="xMidYMid meet" viewBox="0 0 888 888" width="888pt" xmlns="http://www.w3.org/2000/svg"><g transform="matrix(.1 0 0 -.1 0 888)"><path d="m21 8142c-9-18-9-28-2-30 6-2 9-8 6-12-10-16-12-110-3-110 5 0 6-5 3-11-10-14-10-103-1-117 4-7 4-12-1-12-4 0-8-23-8-50 0-28 4-50 8-50 5 0 5-5 2-11-10-14-10-103-1-117 4-7 4-12-1-12-4 0-8-23-8-50 0-28 4-50 8-50 5 0 5-5 2-11-10-14-10-103-1-117 4-7 4-12-1-12-4 0-8-23-8-50 0-28 4-50 8-50 5 0 5-5 2-11-10-14-10-103-1-117 4-7 4-12-1-12-4 0-8-23-8-50 0-28 4-50 8-50 5 0 5-5 2-11-10-14-10-103-1-117 4-7 4-12-1-12-4 0-8-23-8-50 0-28 4-50 8-50 5 0 5-5 2-11-10-14-10-103-1-117 4-7 4-12-1-12-4 0-8-23-8-50 0-28 4-50 8-50 5 0 5-5 2-11-10-14-10-103-1-117 4-7 4-12-1-12-4 0-8-23-8-50 0-28 4-50 8-50 5 0 5-5 2-11-10-14-10-103-1-117 4-7 4-12-1-12-4 0-8-23-8-50 0-28 4-50 8-50 5 0 5-5 2-11-10-14-10-103-1-117 4-7 4-12-1-12-4 0-8-23-8-50 0-28 4-50 8-50 5 0 5-5 2-11-10-14-10-103-1-117 4-7 4-12-1-12-4 0-8-23-8-50 0-28 4-50 8-50 5 0 5-5 2-11-10-14-10-103-1-117 4-7 4-12-1-12-4 0-8-23-8-50 0-28 4-50 8-50 5 0 5-5 2-11-10-14-10-103-1-117 4-7 4-12-1-12-4 0-8-23-8-50 0-28 4-50 8-50 5 0 5-5 2-11-10-14-10-103-1-117 4-7 4-12-1-12-4 0-8-23-8-50 0-28 4-50 8-50 5 0 5-5 2-11-10-14-10-103-1-117 4-7 4-12-1-12-4 0-8-23-8-50 0-28 4-50 8-50 5 0 5-5 2-11-10-14-10-103-1-117 4-7 4-12-1-12-4 0-8-23-8-50 0-28 4-50 8-50 5 0 5-5 2-11-10-14-10-103-1-117 4-7 4-12-1-12-4 0-8-23-8-50 0-28 4-50 8-50 5 0 5-5 2-11-10-14-10-103-1-117 4-7 4-12-1-12-4 0-8-23-8-50 0-28 4-50 8-50 5 0 5-5 2-11-10-14-10-103-1-117 4-7 4-12-1-12-4 0-8-23-8-50 0-28 4-50 8-50 5 0 5-5 2-11-10-14-10-103-1-117 4-7 4-12-1-12-4 0-8-23-8-50 0-28 4-50 8-50 5 0 5-5 2-11-10-14-10-103-1-117 4-7 4-12-1-12-4 0-8-23-8-50 0-28 4-50 8-50 5 0 5-5 2-11-10-14-10-103-1-117 4-7 4-12-1-12-4 0-8-23-8-50 0-28 4-50 8-50 5 0 5-5 2-11-10-14-10-103-1-117 4-7 4-12-1-12-4 0-8-23-8-50 0-28 4-50 8-50 5 0 5-5 2-11-10-14-10-103-1-117 4-7 4-12-1-12-4 0-8-23-8-50 0-28 4-50 8-50 5 0 5-5 2-11-10-14-10-103-1-117 4-7 4-12-1-12-4 0-8-23-8-50 0-28 4-50 8-50 5 0 5-5 2-11-10-14-10-103-1-117 4-7 4-12-1-12-4 0-8-23-8-50 0-28 4-50 8-50 5 0 5-5 2-11-10-14-10-103-1-117 4-7 4-12-1-12-4 0-8-23-8-50 0-28 4-50 8-50 5 0 5-5 2-11-10-14-10-103-1-117 4-7 4-12-1-12-4 0-8-23-8-50 0-28 4-50 8-50 5 0 5-5 2-11-10-14-10-103-1-117 4-7 4-12-1-12-4 0-8-23-8-50 0-28 4-50 8-50 5 0 5-5 2-11-10-14-10-103-1-117 4-7 4-12-1-12-4 0-8-23-8-50 0-28 4-50 8-50 5 0 5-5 2-11-10-14-10-103-1-117 4-7 3-12-1-12-13 0-11-40 2-41 5-1 391-2 857-3 747-1 847 1 850 14 2 8 3 473 3 1032-1 712 2 1018 9 1020 6 2 458 3 1004 3 545 0 992 2 992 5s30 5 68 5c37 0 71 2 76 4s34 6 65 8c87 7 95 8 106 14 6 3 27 5 48 4 20 0 37 2 37 5s8 6 18 7c9 1 33 3 52 5s40 7 46 11c7 4 28 8 48 9 20 2 36 7 36 11 0 5 4 6 9 3 4-3 23-1 42 5 19 5 41 12 49 14 76 19 133 36 170 50 25 9 52 17 60 18s26 8 38 15c13 8 26 11 30 8 3-3 12 0 21 8s18 15 21 15c5 0 43 14 88 33 15 6 29 12 32 13 16 5 146 70 150 75 3 4 20 13 38 21 17 8 32 18 32 22 0 5 4 6 9 3s14 1 21 9 16 13 20 10 10 2 14 10c3 8 12 15 19 15 8 0 26 11 41 25 14 13 28 23 30 22 4-3 123 85 154 113 12 11 22 19 22 16 0-11 203 185 260 250 14 16 24 32 22 37-1 4 4 7 11 7s21 13 30 30c10 16 23 35 30 42 27 28 67 87 67 98 0 6 5 8 10 5 6-3 10-1 10 5s12 29 27 53c15 23 26 45 25 50-1 4 1 7 6 7 4 0 19 21 32 48 14 26 27 49 30 52 13 13 40 70 40 83 0 9 3 17 8 19 10 4 42 75 42 93 0 8 5 15 10 15 6 0 10 4 10 9s5 22 12 38c6 15 12 35 14 43s7 23 13 35c9 18 31 84 37 110 2 6 13 44 25 85s23 86 24 100c2 14 4 25 5 25 2 0 9 32 14 70 2 17 9 42 15 58 7 18 7 27 0 27-6 0-6 6 0 18 5 9 9 20 10 25 1 4 1 8 2 10 0 1 2 18 4 37 1 19 6 69 10 110s8 94 9 117c0 24 5 43 10 43s4 6-2 13c-5 6-6 21-2 32s4 28-1 37c-6 10-5 19 1 23 8 5 7 11-1 21-9 11-9 17 0 28 8 10 9 16 1 21-6 3-7 11-4 17 9 13 11 68 4 68-3 0-5 30-6 68 0 37-4 99-8 137-4 39-9 95-12 125s-7 62-10 70-8 33-11 55c-2 22-10 66-18 97-7 31-10 59-7 62s1 6-5 6c-9 0-11 7-14 48-1 9-6 22-11 29s-7 17-3 23c3 5 2 10-3 10-6 0-8 9-5 20s1 20-5 20c-5 0-12 12-15 28-10 53-16 74-27 86-5 7-7 16-3 19 3 4 2 7-4 7-5 0-10 6-10 14 0 14-22 70-69 174-13 28-23 55-23 58 0 4-3 10-8 13-4 3-23 35-42 71s-37 67-40 70-13 19-21 35c-8 17-23 39-32 49-10 10-15 23-12 28 3 4 1 8-4 8s-26 26-48 58c-21 31-47 65-58 75-10 9-16 17-13 17 9 0-31 44-148 163-105 108-143 142-215 197-18 14-39 31-46 38-7 6-15 12-19 12s-13 6-20 13c-35 30-45 37-45 30 0-4-4-3-8 2-11 15-70 55-82 55-5 0-10 4-10 8 0 5-16 14-35 22s-35 17-35 20c0 5-234 120-285 140-11 4-36 15-57 24-20 9-38 16-41 16s-18 5-34 12c-15 6-37 13-47 15-11 2-25 8-33 14-7 6-13 8-13 4s-7-2-15 5-15 10-15 7c0-4-18 0-40 8s-40 12-40 9c0-2-9 0-20 6s-33 13-48 15c-15 3-45 9-67 15-54 14-158 34-233 45-15 2-43 6-62 9-34 6-66 10-195 22-33 3-96 7-141 8-44 1-86 6-92 10-7 4-12 3-12-1 0-10-58-9-67 1-3 3-14 1-24-4-12-7-20-7-24 0-5 8-11 8-20 0-7-6-16-7-19-2-6 10-36 9-53-1-6-4-15-3-18 3-5 8-11 7-21-1-11-9-17-9-28 0-10 9-16 9-21 1s-10-8-20 0-15 8-20 0-10-8-20 0-15 8-20 0-10-8-20 0-15 8-20 0-10-8-20 0-15 8-20 0-10-8-20 0-15 8-20 0-10-8-20 0-15 8-20 0c-4-6-12-7-18-3-15 10-38 10-54 0-6-4-15-3-18 3-5 8-11 7-21-1-11-9-17-9-28 0-10 9-16 9-21 1s-10-8-20 0-15 8-20 0-10-8-20 0-15 8-20 0c-4-6-12-7-18-3-15 10-38 10-54 0-6-4-15-3-18 3-5 8-11 7-21-1-11-9-17-9-28 0-10 9-16 9-21 1s-10-8-20 0-15 8-20 0-10-8-20 0-15 8-20 0-10-8-20 0-15 8-20 0-10-8-20 0c-9 8-15 8-20 0-3-6-11-7-18-3-16 10-57 10-57 0 0-4-8-4-17 2-10 5-26 5-40 0s-25-4-29 2c-4 7-10 6-19-1-10-8-15-8-20 0s-10 8-20 0c-9-7-15-8-19-1s-15 7-31 1-27-6-31 1-10 7-18 0c-7-6-16-8-19-4-10 10-57 10-57 0 0-4-8-4-17 2-10 5-26 5-40 0s-25-4-29 2c-4 7-10 6-19-1-10-8-15-8-20 0s-10 8-20 0c-7-6-15-7-18-3-6 10-59 9-75-1-6-3-14-2-17 4-5 8-11 7-21-1-11-9-17-9-28 0-10 9-16 9-21 1s-10-8-20 0-15 8-20 0-10-8-20 0-15 8-20 0c-4-6-12-7-18-3-15 10-38 10-54 0-6-4-15-3-18 3-5 8-11 7-21-1-11-9-17-9-28 0-10 9-16 9-21 1s-10-8-20 0-15 8-20 0-10-8-20 0-15 8-20 0c-4-6-12-7-18-3-15 10-38 10-54 0-6-4-15-3-18 3-5 8-11 7-21-1-11-9-17-9-28 0-10 9-16 9-21 1s-10-8-20 0-15 8-20 0-10-8-20 0-15 8-20 0c-4-6-12-7-18-3-15 10-38 10-54 0-6-4-15-3-18 3-5 8-11 7-21-1-11-9-17-9-28 0-10 9-16 9-21 1s-10-8-20 0-15 8-20 0-10-8-20 0-15 8-20 0c-4-6-12-7-18-3-15 10-38 10-54 0-6-4-15-3-18 3-5 8-11 7-21-1-11-9-17-9-28 0-10 9-16 9-21 1s-10-8-20 0-15 8-20 0-10-8-20 0-15 8-20 0c-4-6-12-7-18-3-15 10-38 10-54 0-6-4-15-3-18 3-5 8-11 7-21-1-11-9-17-9-28 0-10 8-16 9-21 1-3-6-11-7-18-3-16 10-57 10-57 0 0-4-8-4-17 2-10 5-26 5-40 0s-25-4-29 2c-4 7-10 6-19-1-10-8-15-8-20 0s-10 8-20 0c-9-7-15-8-19-1s-15 7-31 1-27-6-31 1-10 7-18 0c-7-6-16-8-19-4-10 10-57 10-57 0 0-4-8-4-17 1-10 5-27 6-38 2s-25-3-32 2c-7 6-14 5-18-2-5-8-11-8-21 1-11 9-14 9-14 0 0-8-5-9-19-2-15 8-20 5-30-17zm3519-1505c0-4 9-3 20 3s20 7 20 2 10-8 22-7c11 1 44-2 72-7s62-10 76-12c26-5 32-6 120-30 60-17 72-22 140-54 25-12 49-22 53-22s35-18 68-40 64-40 67-40c4 0 13-9 20-20s16-20 22-20c32 0 204-209 251-305 13-27 29-53 34-57 6-4 6-8 1-8s-3-6 3-13c6-8 12-22 14-33 2-10 9-30 14-44 6-14 9-28 6-32-2-5 0-8 4-8 5 0 9-8 9-17 1-22 14-84 18-92 22-36 26-481 5-481-4 0-6-10-5-22 1-13-4-38-11-55-7-18-11-33-9-33 3 0-1-18-9-39-7-22-11-42-8-45 4-3 1-6-6-6s-10-4-7-8c2-4-6-28-19-54-13-25-21-49-18-52 4-3 2-6-4-6s-14-11-17-25c-4-14-11-25-17-25s-7-4-4-10c3-5 2-10-4-10-5 0-12-8-16-19-3-10-13-28-23-39-46-54-52-63-52-72 0-6-7-10-15-10s-15-6-16-12c0-13-130-130-151-137-7-2-18-9-25-15-8-6-19-15-26-21-20-16-101-55-114-55-6 0-13-5-15-10-2-6-13-12-26-13-12 0-22-4-22-8 0-7-28-17-75-25-16-4-32-9-35-12-3-4-12-8-20-9s-26-4-40-8c-14-3-41-8-60-10s-46-7-60-11-43-8-65-9-63-4-91-5c-27-2-55 0-62 4s-12 4-12-1c0-4-59-8-130-8-80 0-130 4-130 10 0 7-3 7-8 0-4-7-252-10-707-10s-703 3-707 10c-5 6-8 5-8-3 0-10-4-10-19 0-15 9-17 15-9 25s7 13-3 13c-9 0-10 3-4 8 12 8 14 292 2 292-5 0-5 6 0 13 11 18 10 167-2 167-7 0-7 3 0 8 12 8 14 292 2 292-5 0-5 5-1 12 11 17 11 308 0 308-5 0-4 6 1 13 10 14 10 187-1 205-4 7-3 12 1 12 11 0 10 131-1 148-4 7-3 12 1 12 5 0 8 25 8 55s-4 55-10 55c-7 0-7 3 0 8 12 8 14 292 2 292-5 0-5 6 0 13 11 18 10 161-2 169-6 5-6 8 1 8s10 19 8 53l-3 52h910c500 0 909-4 909-8z"/><path d="m7818 2515c-2-2-28-5-58-9-51-6-88-12-100-16-3-1-8-2-12-1-4 0-46-13-93-30-90-31-159-66-212-106-18-13-33-22-33-19 0 4-18-12-40-34s-40-38-40-35c0 2-11-7-25-21s-25-28-25-31-8-13-17-22c-30-27-137-191-133-203 1-2-3-16-9-31-6-16-11-34-11-41 0-6-5-17-12-24s-9-12-6-12c4 0 2-15-3-32-5-18-12-58-16-88-11-87-5-310 8-310 3 0 5-10 6-22 1-27 8-54 21-89 6-15 8-30 5-33-4-3-1-6 5-6 7 0 12-6 12-14 0-15 40-97 52-106 3-3 8-12 10-20s8-20 13-26c6-6 25-30 43-52 42-52 92-102 132-133 18-13 37-28 44-34 28-24 143-87 163-91 7-1 26-9 44-18 17-9 35-13 39-11 5 3 10 1 12-4 1-5 21-12 43-16 47-8 70-13 70-15 0-4 92-12 147-14 32 0 58-4 58-8s7-5 15-2c8 4 43 7 78 9 34 2 62 4 62 5s18 3 40 5c38 4 80 12 80 15 0 1 13 4 28 6 15 3 40 10 55 16s30 11 35 10c4-1 7 2 7 8s3 9 8 9c4-1 23 4 42 11 19 8 37 12 39 11s7 1 10 6 36 28 74 53c37 24 67 47 67 52 0 4 4 8 10 8 18 0 123 116 167 185 18 28 37 55 43 62 5 7 10 18 10 26 0 7 4 17 9 22 7 8 32 74 36 95 1 3 4 14 8 25 20 61 31 160 29 265-1 95-4 124-17 190-4 19-8 41-8 48 0 6-5 12-10 12s-7 6-4 13-6 35-18 63c-13 27-24 55-24 62-1 6-5 12-11 12-5 0-9 4-7 8 3 11-55 102-65 102-4 0-8 6-8 13 0 6-16 28-35 47s-35 38-35 43c0 4-4 5-10 2-5-3-10 2-10 11 0 10-3 15-6 11-3-3-22 10-42 29-21 19-57 47-82 61s-53 33-62 41c-10 8-18 12-18 9 0-4-19 3-42 15-24 13-52 24-63 26-11 1-21 7-23 12s-10 6-18 3-20-1-27 5c-6 5-19 10-27 10-8 1-26 4-40 6-72 14-104 18-207 20-62 2-114 2-115 1z"/></g></svg>